<?xml version="1.0" standalone="no"?>
<!DOCTYPE svg PUBLIC "-//W3C//DTD SVG 20010904//EN"
 "http://www.w3.org/TR/2001/REC-SVG-20010904/DTD/svg10.dtd">
<svg version="1.0" xmlns="http://www.w3.org/2000/svg"
 width="512.000000pt" height="512.000000pt" viewBox="0 0 512.000000 512.000000"
 preserveAspectRatio="xMidYMid meet">

<g transform="translate(0.000000,512.000000) scale(0.100000,-0.100000)"
fill="#000000" stroke="none">
<path d="M1075 3825 c-171 -24 -275 -55 -415 -124 -413 -203 -660 -629 -660
-1141 0 -434 175 -805 490 -1039 305 -226 777 -303 1150 -186 311 98 581 331
845 733 27 40 51 71 55 70 4 -2 42 -55 85 -118 281 -417 634 -664 1039 -727
188 -28 511 2 626 60 164 84 138 320 -42 368 -41 11 -58 10 -150 -12 -138 -32
-353 -33 -469 -1 -158 43 -301 127 -440 260 -136 129 -257 292 -358 484 l-52
96 54 89 c295 486 507 694 792 775 69 20 102 23 235 22 132 -1 169 -5 251 -27
301 -79 496 -275 577 -576 22 -85 25 -116 26 -266 0 -154 -2 -180 -28 -284
-33 -132 -31 -175 11 -234 69 -98 216 -113 298 -31 62 62 112 258 122 474 18
394 -109 750 -353 994 -241 241 -606 373 -980 353 -491 -26 -846 -283 -1226
-887 -47 -74 -142 -232 -213 -350 -218 -367 -333 -527 -471 -660 -135 -130
-246 -195 -399 -236 -109 -29 -338 -25 -466 9 -300 79 -496 274 -577 576 -23
86 -25 115 -25 271 0 156 2 185 25 271 100 373 380 587 793 606 252 11 452
-66 676 -261 38 -34 78 -59 105 -66 175 -49 320 149 219 297 -34 52 -142 143
-256 219 -268 177 -573 245 -894 199z"/>
</g>
</svg>
